<svg xmlns="http://www.w3.org/2000/svg" width="14" height="17">
    <path fill="#0499C5" fill-rule="evenodd" d="M12.428 17C12.02 13.738 9.951 12.498 7 12.498S1.979 13.738 1.572 17H-.005C.513 12.929 3.399 10.998 7 10.998s6.487 1.931 7.005 6.002h-1.577zM7 9.989c-2.768 0-5.013-2.236-5.013-4.995C1.987 2.236 4.232 0 7 0s5.012 2.236 5.012 4.994c0 2.759-2.244 4.995-5.012 4.995zm0-8.324a3.336 3.336 0 0 0-3.342 3.329A3.337 3.337 0 0 0 7 8.324a3.336 3.336 0 0 0 3.341-3.33A3.335 3.335 0 0 0 7 1.665z"/>
</svg>
